<svg width="14" height="8" viewBox="0 0 14 8" fill="none" xmlns="http://www.w3.org/2000/svg">
<path d="M0.636048 0.292952C0.823576 0.105481 1.07788 0.000165462 1.34305 0.000165462C1.60821 0.000165462 1.86252 0.105481 2.05005 0.292952L7.00005 5.24295L11.95 0.292952C12.1387 0.110794 12.3913 0.00999975 12.6535 0.0122781C12.9156 0.0145564 13.1665 0.119725 13.3519 0.305133C13.5373 0.490541 13.6424 0.741354 13.6447 1.00355C13.647 1.26575 13.5462 1.51835 13.364 1.70695L7.70705 7.36395C7.51952 7.55142 7.26521 7.65674 7.00005 7.65674C6.73488 7.65674 6.48058 7.55142 6.29305 7.36395L0.636048 1.70695C0.448577 1.51942 0.343262 1.26512 0.343262 0.999952C0.343262 0.734787 0.448577 0.48048 0.636048 0.292952Z" fill="black"/>
</svg>
