<svg width="14" height="14" viewBox="0 0 14 14" fill="none" xmlns="http://www.w3.org/2000/svg">
<path d="M7.00001 0.333374C7.88407 0.333374 8.73191 0.684563 9.35703 1.30968C9.98215 1.93481 10.3333 2.78265 10.3333 3.66671C10.3333 4.55076 9.98215 5.39861 9.35703 6.02373C8.73191 6.64885 7.88407 7.00004 7.00001 7.00004C6.11595 7.00004 5.26811 6.64885 4.64299 6.02373C4.01787 5.39861 3.66668 4.55076 3.66668 3.66671C3.66668 2.78265 4.01787 1.93481 4.64299 1.30968C5.26811 0.684563 6.11595 0.333374 7.00001 0.333374ZM7.00001 8.66671C10.6833 8.66671 13.6667 10.1584 13.6667 12V13.6667H0.333344V12C0.333344 10.1584 3.31668 8.66671 7.00001 8.66671Z" fill="#DBE3E1"/>
</svg>
